#N canvas 827 239 527 327 12;
#X obj 475 471 osc.send 12000;
#X msg 516 429 /brightness \$1;
#X obj 519 334 hsl 128 17 0 254 0 0 empty empty empty -2 -8 0 10 #e4e4e4 #4d4d4d #373737 0 1;
#X obj 329 267 osc.receive 12000;
#X obj 329 471 print;
#X obj 735 471 osc.send 12000;
#X msg 770 429 /brightness \$1;
#X obj 519 300 hsl 128 17 0 254 0 0 empty empty empty -2 -8 0 10 #e4e4e4 #4d4d4d #373737 0 1;
#X obj 516 365 int;
#X floatatom 516 397 5 0 0 0 - - - 12;
#X obj 773 334 hsl 128 17 0 254 0 0 empty empty empty -2 -8 0 10 #e4e4e4 #4d4d4d #373737 0 1;
#X obj 770 365 int;
#X floatatom 770 397 5 0 0 0 - - - 12;
#X obj 358 300 osc.route /ping;
#X symbolatom 358 374 13 0 0 0 - - - 12;
#X obj 358 334 symbol;
#X obj 475 173 bng 25 250 50 0 empty empty empty 17 7 0 10 #e4e4e4 #4d4d4d #373737;
#X obj 475 206 symbol 192.168.1.2;
#X obj 358 408 s ping_1;
#X obj 571 179 r ping_1;
#X obj 475 135 loadbang;
#X msg 475 267 connect \$1 12000;
#X symbolatom 735 239 13 0 0 0 - - - 12;
#X symbolatom 475 239 13 0 0 0 - - - 12;
#X obj 735 173 bng 25 250 50 0 empty empty empty 17 7 0 10 #e4e4e4 #4d4d4d #373737;
#X obj 735 206 symbol 192.168.1.3;
#X msg 735 267 connect \$1 12000;
#X text 388 179 Update addr;
#X text 647 179 Update addr;
#X connect 1 0 0 0;
#X connect 2 0 8 0;
#X connect 3 0 4 0;
#X connect 3 0 13 0;
#X connect 6 0 5 0;
#X connect 7 0 2 0;
#X connect 7 0 10 0;
#X connect 8 0 9 0;
#X connect 9 0 1 0;
#X connect 10 0 11 0;
#X connect 11 0 12 0;
#X connect 12 0 6 0;
#X connect 13 0 15 0;
#X connect 14 0 18 0;
#X connect 15 0 14 0;
#X connect 16 0 17 0;
#X connect 17 0 23 0;
#X connect 19 0 17 1;
#X connect 20 0 16 0;
#X connect 20 0 24 0;
#X connect 21 0 0 0;
#X connect 22 0 26 0;
#X connect 23 0 21 0;
#X connect 24 0 25 0;
#X connect 25 0 22 0;
#X connect 26 0 5 0;
