#N canvas 827 239 527 327 12;
#X obj 475 471 osc.send 12000;
#X msg 475 293 connect 192.168.1.1 12000;
#X msg 510 429 /brightness \$1;
#X obj 516 360 hsl 128 17 0 254 0 0 empty empty empty -2 -8 0 10 #e4e4e4 #4d4d4d #373737 0 1;
#X obj 329 471 osc.receive 12000;
#X obj 329 497 print;
#X floatatom 510 392 5 0 0 0 - - - 12;
#X obj 661 471 osc.send 12000;
#X msg 696 429 /brightness \$1;
#X obj 702 360 hsl 128 17 0 254 0 0 empty empty empty -2 -8 0 10 #e4e4e4 #4d4d4d #373737 0 1;
#X floatatom 696 392 5 0 0 0 - - - 12;
#X msg 661 293 connect 192.168.1.2 12000;
#X obj 516 326 hsl 128 17 0 254 0 0 empty empty empty -2 -8 0 10 #e4e4e4 #4d4d4d #373737 0 1;
#X connect 1 0 0 0;
#X connect 2 0 0 0;
#X connect 3 0 6 0;
#X connect 4 0 5 0;
#X connect 6 0 2 0;
#X connect 8 0 7 0;
#X connect 9 0 10 0;
#X connect 10 0 8 0;
#X connect 11 0 7 0;
#X connect 12 0 3 0;
#X connect 12 0 9 0;
