#N canvas 827 239 734 565 12;
#X obj 90 204 sel 10 13;
#X obj 90 314 fromsymbol;
#X obj 210 245 array size array1;
#N canvas 0 0 450 250 (subpatch) 0;
#X array array1 100 float 0;
#X coords 0 255 99 0 200 140 1;
#X restore 352 245 graph;
#X obj 210 199 bng 25 250 50 0 empty empty empty 17 7 0 10 #e4e4e4 #4d4d4d #373737;
#X floatatom 210 279 5 0 0 0 - - - 12;
#X obj 273 376 count;
#X obj 273 332 bng 25 250 50 0 empty empty empty 17 7 0 10 #e4e4e4 #4d4d4d #373737;
#X floatatom 273 413 5 0 0 0 - - - 12;
#X msg 210 309 max \$1;
#X obj 200 447 tabwrite array1;
#X obj 210 170 loadbang;
#X floatatom 90 350 5 0 0 0 - - - 12;
#X obj 144 350 t b;
#X msg 90 133 open \$1;
#X obj 90 98 hradio 20 1 0 4 empty empty empty 0 -8 0 10 #e4e4e4 #4d4d4d #373737 0;
#X msg 161 133 devices;
#X obj 90 251 zl.group 4;
#X obj 90 281 fudiparse;
#X obj 90 170 comport 0 9600;
#X connect 0 0 17 0;
#X connect 0 2 17 0;
#X connect 1 0 12 0;
#X connect 1 0 13 0;
#X connect 2 0 5 0;
#X connect 4 0 2 0;
#X connect 5 0 9 0;
#X connect 6 0 8 0;
#X connect 7 0 6 0;
#X connect 8 0 10 1;
#X connect 9 0 6 0;
#X connect 11 0 4 0;
#X connect 12 0 10 0;
#X connect 13 0 7 0;
#X connect 14 0 19 0;
#X connect 15 0 14 0;
#X connect 16 0 19 0;
#X connect 17 0 18 0;
#X connect 18 0 1 0;
#X connect 19 0 0 0;
