#N canvas 733 172 160 200 8;
#X obj 231 579 fudiparse;
#X obj 280 677 print parsed;
#X obj 400 675 print raw;
#X obj 280 641 gate;
#X obj 249 635 tgl 25 0 empty do_print empty 17 7 0 10 #e4e4e4 #4d4d4d #373737 0 1;
#X obj 54 105 bng 25 250 50 0 \$0-tick_out \$0-tick_in received 34 12 0 12 #e4e4e4 #4d4d4d #373737;
#X msg 258 488 clear;
#X obj 144 292 select 13 10;
#X obj 143 405 gate;
#X obj 143 369 tgl 25 0 empty empty empty 17 7 0 10 #e4e4e4 #4d4d4d #373737 0 1;
#X msg 145 331 0;
#X msg 173 331 1;
#X obj 143 465 bag;
#X msg 231 433 flush;
#X obj 143 433 list append 1;
#X obj 231 548 list;
#X obj 231 465 t b;
#X obj 400 641 gate;
#X obj 231 712 outlet;
#X obj 726 128 fudiparse;
#X obj 613 79 fudiformat;
#X obj 368 635 tgl 25 0 empty do_print empty 17 7 0 10 #e4e4e4 #4d4d4d #373737 0 1;
#X obj 613 128 list split 5;
#X obj 622 213 print striped;
#X obj 613 46 inlet;
#X obj 353 182 comport -1 57600;
#X obj 19 46 vradio 25 1 0 6 empty \$0-listed empty 0 -8 0 10 #e4e4e4 #4d4d4d #373737 0;
#X msg 424 76 ports;
#X obj 444 252 list split 1;
#X obj 565 252 t b;
#X obj 444 405 coll;
#C restore;
#X msg 566 284 0;
#X obj 444 326 f;
#X obj 484 326 + 1;
#X obj 444 284 t b;
#X obj 444 360 list append;
#X obj 472 712 s \$0-to_com;
#X obj 509 46 r \$0-to_com;
#X obj 530 648 t b;
#X msg 472 612 devicename \$1;
#X obj 424 46 loadbang;
#X obj 714 213 print fudi;
#X obj 509 548 s \$0-connected;
#X obj 444 221 route ports baud;
#X obj 192 221 f 0;
#X obj 192 182 t b;
#X obj 54 46 messbox 113 51 228 228 228 55 55 55 0 12;
#X obj 192 46 r \$0-connected;
#X msg 509 518 set \$1;
#N canvas 733 172 450 300 init_example 0;
#X msg 224 53 devices;
#X msg 164 53 ports;
#X msg 386 52 open 0;
#X msg 451 139 devicename /dev/ttyACM0;
#X msg 451 172 baud 57600;
#X msg 312 52 close;
#X msg 400 79 open 4;
#X obj 333 266 outlet;
#X msg 485 199 baud 115200;
#X msg 525 283 pollintervall 1;
#X msg 65 53 help;
#X msg 509 439 verbose \$1;
#X text 626 282 set poll interval for read in ms;
#X msg 114 53 info;
#X msg 621 426 hupcl \$1;
#X text 626 315 hang up connection on last close;
#X text 626 345 (not on Windows);
#X text 621 550 how many times to retry a lost connection;
#X msg 78 436 break \$1;
#X obj 89 330 delay 50;
#X obj 56 294 t b b;
#X obj 56 273 bng 15 250 50 0 empty empty empty 17 7 0 10 #fcfcfc #000000 #000000;
#X floatatom 141 296 5 0 0 0 - - - 0;
#X text 95 370 send break;
#X msg 426 485 inputprocess \$1;
#X text 384 523 enable automatic input processing;
#X text 384 549 (not on Windows \, default: disabled);
#X obj 621 377 tgl 25 0 empty empty empty 17 7 0 10 #e4e4e4 #4d4d4d #373737 0 1;
#X obj 466 433 tgl 25 0 empty empty empty 17 7 0 10 #e4e4e4 #4d4d4d #373737 0 1;
#X obj 391 485 tgl 25 0 empty empty empty 17 7 0 10 #e4e4e4 #4d4d4d #373737 0 1;
#X obj 502 100 hradio 25 1 0 12 empty empty empty 0 -8 0 10 #e4e4e4 #4d4d4d #373737 0;
#X msg 427 106 open \$1;
#X msg 621 524 retries 1;
#X msg 325 413 1;
#X obj 322 377 loadbang;
#X msg 548 160 devicename COM7;
#X msg 224 413 lock \$1;
#X obj 224 371 tgl 25 0 empty empty empty 17 7 0 10 #e4e4e4 #4d4d4d #373737 0 1;
#X obj 56 371 tgl 25 0 empty empty empty 17 7 0 10 #e4e4e4 #4d4d4d #373737 0 1;
#X obj 214 266 inlet;
#X connect 0 0 7 0;
#X connect 1 0 7 0;
#X connect 2 0 7 0;
#X connect 3 0 7 0;
#X connect 4 0 7 0;
#X connect 5 0 7 0;
#X connect 6 0 7 0;
#X connect 8 0 7 0;
#X connect 10 0 7 0;
#X connect 11 0 7 0;
#X connect 13 0 7 0;
#X connect 14 0 7 0;
#X connect 18 0 7 0;
#X connect 19 0 38 0;
#X connect 20 0 38 0;
#X connect 20 1 19 0;
#X connect 21 0 20 0;
#X connect 22 0 19 1;
#X connect 24 0 7 0;
#X connect 27 0 14 0;
#X connect 28 0 11 0;
#X connect 29 0 24 0;
#X connect 30 0 31 0;
#X connect 31 0 7 0;
#X connect 32 0 7 0;
#X connect 33 0 29 0;
#X connect 33 0 28 0;
#X connect 33 0 27 0;
#X connect 34 0 33 0;
#X connect 35 0 7 0;
#X connect 36 0 7 0;
#X connect 37 0 36 0;
#X connect 38 0 18 0;
#X connect 39 0 7 0;
#X restore 305 46 pd init_example;
#X obj 353 712 outlet;
#X msg 530 675 info;
#X obj 509 487 format %d\ %s\ (%d);
#X obj 657 579 s \$0-listed;
#X msg 657 548 number \$1;
#X obj 657 487 + 1;
#X obj 757 46 inlet;
#X obj 339 82 gate;
#X obj 305 76 tgl 25 0 empty empty empty 17 7 0 10 #e4e4e4 #4d4d4d #373737 0 1;
#X obj 714 182 gate;
#X obj 682 176 tgl 25 0 empty di_print empty 17 7 0 10 #e4e4e4 #4d4d4d #373737 0 1;
#X obj 622 182 gate;
#X obj 590 176 tgl 25 0 empty di_print empty 17 7 0 10 #e4e4e4 #4d4d4d #373737 0 1;
#X obj 231 375 s \$0-tick_in;
#X obj 231 405 r \$0-tick_out;
#X obj 54 172 tgl 25 0 do_print empty debug\ output 34 12 0 12 #e4e4e4 #4d4d4d #373737 0 1;
#X obj 54 138 tgl 25 0 di_print empty debug\ input 34 12 0 12 #e4e4e4 #4d4d4d #373737 0 1;
#X obj 657 516 min 6;
#X msg 711 516 6;
#X obj 509 456 pack f s 9600;
#X obj 577 360 i;
#X obj 547 405 t b;
#X obj 258 519 stream 256;
#X connect 0 0 3 1;
#X connect 0 0 18 0;
#X connect 3 0 1 0;
#X connect 4 0 3 0;
#X connect 6 0 72 0;
#X connect 7 0 10 0;
#X connect 7 1 10 0;
#X connect 7 1 63 0;
#X connect 7 2 11 0;
#X connect 8 0 14 0;
#X connect 9 0 8 0;
#X connect 10 0 9 0;
#X connect 11 0 9 0;
#X connect 12 0 72 0;
#X connect 13 0 12 0;
#X connect 13 0 16 0;
#X connect 14 0 12 0;
#X connect 15 0 0 0;
#X connect 16 0 15 0;
#X connect 16 0 6 0;
#X connect 17 0 2 0;
#X connect 19 0 59 1;
#X connect 20 0 19 0;
#X connect 20 0 22 0;
#X connect 21 0 17 0;
#X connect 22 1 61 1;
#X connect 22 1 25 0;
#X connect 24 0 20 0;
#X connect 25 0 17 1;
#X connect 25 0 7 0;
#X connect 25 0 8 1;
#X connect 25 0 50 0;
#X connect 25 1 43 0;
#X connect 26 0 44 1;
#X connect 26 0 45 0;
#X connect 27 0 25 0;
#X connect 27 0 29 0;
#X connect 28 0 34 0;
#X connect 28 1 35 1;
#X connect 29 0 31 0;
#X connect 30 0 39 0;
#X connect 30 0 69 1;
#X connect 30 0 38 0;
#X connect 30 1 69 0;
#X connect 31 0 32 1;
#X connect 32 0 33 0;
#X connect 32 0 35 0;
#X connect 32 0 55 0;
#X connect 33 0 32 1;
#X connect 34 0 32 0;
#X connect 35 0 30 0;
#X connect 35 0 45 0;
#X connect 37 0 25 0;
#X connect 38 0 51 0;
#X connect 39 0 36 0;
#X connect 40 0 27 0;
#X connect 43 0 28 0;
#X connect 43 1 70 0;
#X connect 44 0 30 0;
#X connect 45 0 44 0;
#X connect 47 0 46 0;
#X connect 48 0 42 0;
#X connect 49 0 57 1;
#X connect 51 0 36 0;
#X connect 52 0 48 0;
#X connect 54 0 53 0;
#X connect 55 0 67 0;
#X connect 56 0 25 0;
#X connect 57 0 25 0;
#X connect 58 0 57 0;
#X connect 59 0 41 0;
#X connect 60 0 59 0;
#X connect 61 0 23 0;
#X connect 62 0 61 0;
#X connect 64 0 13 0;
#X connect 67 0 54 0;
#X connect 68 0 54 0;
#X connect 69 0 52 0;
#X connect 70 0 69 2;
#X connect 70 0 71 0;
#X connect 71 0 69 0;
#X connect 72 0 15 1;
#X coords 0 0 1 1 181 180 1 0 27;
