#N struct 1004-point float x0 float y0 float xs float ys float fg float in float gridx float gridy;
#N canvas 827 239 527 327 12;
#X declare -path .;
#X obj 48 264 cnv 15 180 19 empty 2d_xy X:988\ Y:937 5 12 0 14 #ffffff #373737 0;
#X obj 48 85 slider2d 180 180 0 1023 0 1023 1 255 255 255 0 0 0 1 1 0 988.9 937.75 empty empty;
#X msg 163 49 jump 1;
#X obj 163 26 loadbang;
#X msg 48 345 label \$1;
#X floatatom 232 247 5 0 0 0 - - - 12;
#X floatatom 48 63 5 0 0 0 - - - 12;
#X obj 48 377 s 2d_xy;
#X obj 308 49 declare -path .;
#X obj 308 85 com_manager;
#X obj 48 315 format X:%d\ Y:%d;
#X obj 180 315 format %d\ %d;
#X obj 180 345 fromsymbol;
#X connect 1 0 10 0;
#X connect 1 0 11 0;
#X connect 2 0 1 0;
#X connect 3 0 2 0;
#X connect 4 0 7 0;
#X connect 10 0 4 0;
#X connect 11 0 12 0;
#X connect 12 0 9 0;
