#N canvas 827 239 734 565 12;
#X obj 410 439 print;
#X msg 201 163 disconnect;
#X obj 327 135 hsl 128 17 0 254 0 0 empty empty empty -2 -8 0 10 #e4e4e4 #4d4d4d #373737 0 1;
#X msg 146 133 connect 192.168.4.1 9998;
#X obj 324 504 messbox 180 60 228 228 228 55 55 55 0 12;
#X msg 324 474 set \$1;
#X obj 324 439 any2symbol;
#X obj 324 308 osc.send;
#X obj 324 356 osc.receive 9999;
#X obj 324 170 int;
#X obj 324 207 pack f f;
#X msg 324 240 /led2 \$1 \$2 foo;
#X obj 484 135 hsl 128 17 0 254 0 0 empty empty empty -2 -8 0 10 #e4e4e4 #4d4d4d #373737 0 1;
#X obj 481 170 int;
#X obj 481 207 pack f f;
#X msg 481 240 /bind \$1 \$2 foo;
#X obj 530 474 print /reply;
#X obj 616 474 print others;
#X obj 530 439 osc.route /reply, f 15;
#X connect 1 0 7 0;
#X connect 2 0 9 0;
#X connect 2 0 10 1;
#X connect 3 0 7 0;
#X connect 5 0 4 0;
#X connect 6 0 5 0;
#X connect 8 0 6 0;
#X connect 8 0 0 0;
#X connect 8 0 18 0;
#X connect 9 0 10 0;
#X connect 10 0 11 0;
#X connect 11 0 7 0;
#X connect 12 0 13 0;
#X connect 12 0 14 1;
#X connect 13 0 14 0;
#X connect 14 0 15 0;
#X connect 15 0 7 0;
#X connect 18 0 16 0;
#X connect 18 1 17 0;
