#N canvas 827 239 734 565 12;
#X obj 241 341 netsend -u;
#X obj 241 396 netreceive -u 9999;
#X obj 327 429 print;
#X msg 272 200 disconnect;
#X msg 434 229 list /led1 \$1;
#X obj 437 200 hsl 128 17 0 254 0 0 empty empty empty -2 -8 0 10 #e4e4e4 #4d4d4d #373737 0 1;
#X obj 437 268 hsl 128 17 0 254 0 0 empty empty empty -2 -8 0 10 #e4e4e4 #4d4d4d #373737 0 1;
#X msg 434 297 list /led2 \$1;
#X floatatom 434 123 5 0 0 0 - - - 12;
#X msg 434 158 symbol hello;
#X msg 241 168 connect 192.168.4.1 9998;
#X obj 241 494 messbox 180 60 228 228 228 55 55 55 0 12;
#X msg 241 464 set \$1;
#X obj 241 429 any2symbol;
#X msg 201 124 connect 192.168.1.5 9998;
#X obj 67 123 messbox 113 24 228 228 228 55 55 55 0 16;
#X obj 67 90 bng 25 250 50 0 empty empty empty 17 7 0 10 #e4e4e4 #4d4d4d #373737;
#X msg 67 158 connect \$1 9998;
#X connect 1 0 13 0;
#X connect 1 0 2 0;
#X connect 3 0 0 0;
#X connect 4 0 0 0;
#X connect 5 0 4 0;
#X connect 6 0 7 0;
#X connect 7 0 0 0;
#X connect 8 0 0 0;
#X connect 9 0 0 0;
#X connect 10 0 0 0;
#X connect 12 0 11 0;
#X connect 13 0 12 0;
#X connect 14 0 0 0;
#X connect 15 0 17 0;
#X connect 16 0 15 0;
#X connect 17 0 0 0;
