#N struct 1060-point float x0 float y0 float xs float ys float fg float in float gridx float gridy;
#N canvas 827 239 527 327 12;
#X declare -path .;
#X obj 48 264 cnv 15 180 19 empty 2d_xy X:596\ Y:386 5 12 0 14 #ffffff #373737 0;
#X obj 47 299 unpack f f;
#X obj 47 326 i;
#X obj 93 326 i;
#X obj 48 85 slider2d 180 180 0 1023 0 1023 1 255 255 255 0 0 0 1 1 0 596.75 386.467 empty empty;
#X msg 163 49 jump 1;
#X obj 163 26 loadbang;
#X msg 47 443 label \$1;
#X obj 47 354 pack2 i i;
#X obj 47 414 any2symbol;
#X obj 47 384 format X:%d Y:%d;
#X floatatom 232 247 5 0 0 0 - - - 12;
#X floatatom 48 63 5 0 0 0 - - - 12;
#X obj 47 475 s 2d_xy;
#X obj 308 49 declare -path .;
#X obj 308 85 com_manager;
#X connect 1 0 2 0;
#X connect 1 1 3 0;
#X connect 2 0 8 0;
#X connect 3 0 8 1;
#X connect 4 0 1 0;
#X connect 5 0 4 0;
#X connect 6 0 5 0;
#X connect 7 0 13 0;
#X connect 8 0 10 0;
#X connect 8 0 15 0;
#X connect 9 0 7 0;
#X connect 10 0 9 0;
