#N struct 1023-cell float x float y float cellsize float color;
#N canvas 827 239 527 327 12;
#N canvas 733 172 450 300 com_test 0;
#X obj 302 316 comport;
#X msg 236 214 devices;
#X msg 176 214 ports;
#X msg 335 247 open 0;
#X msg 476 214 devicename /dev/ttyACM0;
#X msg 476 247 baud 57600;
#X msg 335 214 close;
#X obj 183 554 fudiparse;
#X obj 171 660 print parsed;
#X obj 383 316 print comport_msg;
#X obj 365 660 print raw;
#X obj 171 624 gate;
#X obj 141 548 tgl 25 0 empty empty empty 17 7 0 10 #e4e4e4 #4d4d4d #373737 0 1;
#X obj 412 426 bng 25 250 50 0 empty empty empty 17 7 0 10 #e4e4e4 #4d4d4d #373737;
#X msg 294 492 clear;
#X obj 213 492 stream 128;
#X obj 430 358 select 13 10;
#X obj 95 380 gate;
#X obj 95 338 tgl 25 0 empty empty empty 17 7 0 10 #e4e4e4 #4d4d4d #373737 0 1;
#X msg 459 406 0;
#X msg 487 406 1;
#X obj 95 440 bag;
#X msg 183 412 flush;
#X obj 95 412 list append 1;
#X obj 183 523 list;
#X obj 183 440 t b;
#X obj 365 626 gate;
#X obj 365 593 != 1;
#X obj 21 58 tgl 25 0 empty empty empty 17 7 0 10 #e4e4e4 #4d4d4d #373737 0 1;
#X msg 396 247 open 11;
#X obj 115 660 outlet;
#X obj 396 72 mtx.ctl;
#X connect 0 0 16 0;
#X connect 0 0 17 1;
#X connect 0 0 26 1;
#X connect 0 1 9 0;
#X connect 1 0 0 0;
#X connect 2 0 0 0;
#X connect 3 0 0 0;
#X connect 4 0 0 0;
#X connect 5 0 0 0;
#X connect 6 0 0 0;
#X connect 7 0 11 1;
#X connect 11 0 8 0;
#X connect 11 0 30 0;
#X connect 12 0 11 0;
#X connect 12 0 27 0;
#X connect 13 0 22 0;
#X connect 14 0 15 0;
#X connect 15 0 24 1;
#X connect 16 0 19 0;
#X connect 16 1 13 0;
#X connect 16 1 19 0;
#X connect 16 2 20 0;
#X connect 17 0 23 0;
#X connect 18 0 17 0;
#X connect 19 0 18 0;
#X connect 20 0 18 0;
#X connect 21 0 15 0;
#X connect 22 0 21 0;
#X connect 22 0 25 0;
#X connect 23 0 21 0;
#X connect 24 0 7 0;
#X connect 25 0 24 0;
#X connect 25 0 14 0;
#X connect 26 0 10 0;
#X connect 27 0 26 0;
#X connect 28 0 12 0;
#X connect 29 0 0 0;
#X coords 0 0 1 1 164 81 1 0 29;
#X restore 26 28 pd com_test;
