#N canvas 733 172 160 200 8;
#X obj 238 454 fudiparse;
#X obj 226 538 print parsed;
#X obj 476 132 print comport_msg;
#X obj 343 538 print raw;
#X obj 226 502 gate;
#X obj 196 448 tgl 25 0 empty empty empty 17 7 0 10 #e4e4e4 #4d4d4d #373737 0 1;
#X obj 19 178 bng 25 250 50 0 empty empty empty 17 7 0 10 #e4e4e4 #4d4d4d #373737;
#X msg 353 392 clear;
#X obj 268 392 stream 128;
#X obj 258 184 select 13 10;
#X obj 150 280 gate;
#X obj 285 262 tgl 25 0 empty empty empty 17 7 0 10 #e4e4e4 #4d4d4d #373737 0 1;
#X msg 287 224 0;
#X msg 315 224 1;
#X obj 150 340 bag;
#X msg 238 312 flush;
#X obj 150 312 list append 1;
#X obj 238 423 list;
#X obj 238 340 t b;
#X obj 343 504 gate;
#X obj 141 178 tgl 25 0 empty empty empty 17 7 0 10 #e4e4e4 #4d4d4d #373737 0 1;
#X obj 170 538 outlet;
#N canvas 733 172 450 300 inittest 0;
#X msg 224 53 devices;
#X msg 164 53 ports;
#X msg 386 52 open 0;
#X msg 451 139 devicename /dev/ttyACM0;
#X msg 451 172 baud 57600;
#X msg 312 52 close;
#X msg 400 79 open 4;
#X obj 333 266 outlet;
#X msg 485 199 baud 115200;
#X msg 525 283 pollintervall 1;
#X msg 65 53 help;
#X msg 509 439 verbose \$1;
#X text 626 282 set poll interval for read in ms;
#X msg 114 53 info;
#X msg 621 426 hupcl \$1;
#X text 626 315 hang up connection on last close;
#X text 626 345 (not on Windows);
#X text 621 550 how many times to retry a lost connection;
#X msg 78 436 break \$1;
#X obj 89 330 delay 50;
#X obj 56 294 t b b;
#X obj 56 273 bng 15 250 50 0 empty empty empty 17 7 0 10 #fcfcfc #000000 #000000;
#X floatatom 141 296 5 0 0 0 - - - 0;
#X text 95 370 send break;
#X msg 426 485 inputprocess \$1;
#X text 384 523 enable automatic input processing;
#X text 384 549 (not on Windows \, default: disabled);
#X obj 621 377 tgl 25 0 empty empty empty 17 7 0 10 #e4e4e4 #4d4d4d #373737 0 1;
#X obj 466 433 tgl 25 0 empty empty empty 17 7 0 10 #e4e4e4 #4d4d4d #373737 0 1;
#X obj 391 485 tgl 25 0 empty empty empty 17 7 0 10 #e4e4e4 #4d4d4d #373737 0 1;
#X obj 502 100 hradio 25 1 0 12 empty empty empty 0 -8 0 10 #e4e4e4 #4d4d4d #373737 0;
#X msg 427 106 open \$1;
#X msg 621 524 retries 1;
#X msg 325 413 1;
#X obj 322 377 loadbang;
#X msg 548 160 devicename COM7;
#X msg 224 413 lock \$1;
#X obj 224 371 tgl 25 0 empty empty empty 17 7 0 10 #e4e4e4 #4d4d4d #373737 0 1;
#X obj 56 371 tgl 25 0 empty empty empty 17 7 0 10 #e4e4e4 #4d4d4d #373737 0 1;
#X obj 214 266 inlet;
#X connect 0 0 7 0;
#X connect 1 0 7 0;
#X connect 2 0 7 0;
#X connect 3 0 7 0;
#X connect 4 0 7 0;
#X connect 5 0 7 0;
#X connect 6 0 7 0;
#X connect 8 0 7 0;
#X connect 10 0 7 0;
#X connect 11 0 7 0;
#X connect 13 0 7 0;
#X connect 14 0 7 0;
#X connect 18 0 7 0;
#X connect 19 0 38 0;
#X connect 20 0 38 0;
#X connect 20 1 19 0;
#X connect 21 0 20 0;
#X connect 22 0 19 1;
#X connect 24 0 7 0;
#X connect 27 0 14 0;
#X connect 28 0 11 0;
#X connect 29 0 24 0;
#X connect 30 0 31 0;
#X connect 31 0 7 0;
#X connect 32 0 7 0;
#X connect 33 0 29 0;
#X connect 33 0 28 0;
#X connect 33 0 27 0;
#X connect 34 0 33 0;
#X connect 35 0 7 0;
#X connect 36 0 7 0;
#X connect 37 0 36 0;
#X connect 38 0 18 0;
#X connect 39 0 7 0;
#X restore 353 88 pd inittest;
#X obj 747 277 fudiparse;
#X obj 637 169 fudiformat;
#X obj 318 448 tgl 25 0 empty empty empty 17 7 0 10 #e4e4e4 #4d4d4d #373737 0 1;
#X obj 637 277 list split 5;
#X obj 658 311 print striped;
#X obj 637 88 inlet;
#X obj 353 132 comport -1 57600;
#X obj 444 236 route ports;
#X obj 19 46 vradio 25 1 0 5 empty empty empty 0 -8 0 10 #e4e4e4 #4d4d4d #373737 0;
#X obj 407 182 route ports;
#X msg 444 88 ports;
#X obj 444 272 list split 1;
#X obj 407 211 t b;
#X obj 463 438 coll;
#C restore;
#X obj 666 520 print index;
#X msg 476 324 0;
#X obj 463 366 f;
#X obj 503 366 + 1;
#X obj 444 324 t b;
#X obj 463 403 list append;
#X obj 426 553 s \$0-to_com;
#X obj 510 88 r \$0-to_com;
#X obj 426 487 symbol;
#X obj 426 438 t b;
#X msg 426 520 devicename \$1;
#X obj 579 368 del 100;
#X msg 581 403 0;
#X obj 444 58 loadbang;
#X obj 543 520 print devicename;
#X obj 747 311 print fudi;
#X obj 141 46 bng 25 250 50 0 empty empty empty 17 7 0 10 #e4e4e4 #4d4d4d #373737;
#X msg 274 88 close;
#X obj 543 554 pack2 a a;
#X obj 543 586 format %d %s;
#X obj 543 617 any2symbol;
#X obj 49 46 cnv 15 88 125 empty \$0-connected 0\ COM7 10 12 0 14 #b7b7b7 #373737 0;
#X obj 543 679 s \$0-connected;
#X msg 543 649 label \$1;
#X connect 0 0 4 1;
#X connect 4 0 1 0;
#X connect 4 0 21 0;
#X connect 5 0 4 0;
#X connect 6 0 15 0;
#X connect 7 0 8 0;
#X connect 8 0 17 1;
#X connect 9 0 12 0;
#X connect 9 1 6 0;
#X connect 9 1 12 0;
#X connect 9 2 13 0;
#X connect 10 0 16 0;
#X connect 11 0 10 0;
#X connect 12 0 11 0;
#X connect 13 0 11 0;
#X connect 14 0 8 0;
#X connect 15 0 14 0;
#X connect 15 0 18 0;
#X connect 16 0 14 0;
#X connect 17 0 0 0;
#X connect 18 0 17 0;
#X connect 18 0 7 0;
#X connect 19 0 3 0;
#X connect 20 0 5 0;
#X connect 20 0 25 0;
#X connect 22 0 29 0;
#X connect 22 0 32 0;
#X connect 23 0 52 0;
#X connect 24 0 23 0;
#X connect 24 0 26 0;
#X connect 25 0 19 0;
#X connect 26 1 27 0;
#X connect 26 1 29 0;
#X connect 28 0 24 0;
#X connect 29 0 9 0;
#X connect 29 0 10 1;
#X connect 29 0 19 1;
#X connect 29 1 2 0;
#X connect 29 1 30 0;
#X connect 30 0 34 0;
#X connect 31 0 36 0;
#X connect 31 0 46 0;
#X connect 32 0 35 0;
#X connect 33 0 29 0;
#X connect 33 0 32 0;
#X connect 34 0 41 0;
#X connect 34 1 42 1;
#X connect 35 0 38 0;
#X connect 35 0 48 0;
#X connect 36 0 45 1;
#X connect 36 0 51 0;
#X connect 36 0 55 1;
#X connect 36 1 37 0;
#X connect 36 1 55 0;
#X connect 38 0 39 1;
#X connect 39 0 40 0;
#X connect 39 0 42 0;
#X connect 40 0 39 1;
#X connect 41 0 39 0;
#X connect 42 0 36 0;
#X connect 44 0 29 0;
#X connect 45 0 47 0;
#X connect 46 0 45 0;
#X connect 47 0 43 0;
#X connect 48 0 49 0;
#X connect 49 0 36 0;
#X connect 49 0 46 0;
#X connect 50 0 33 0;
#X connect 53 0 54 0;
#X connect 55 0 56 0;
#X connect 56 0 57 0;
#X connect 57 0 60 0;
#X connect 60 0 59 0;
#X coords 0 0 1 1 181 180 1 0 27;
